<?xml version="1.0" standalone="no"?>
<!DOCTYPE svg PUBLIC "-//W3C//DTD SVG 20010904//EN"
 "http://www.w3.org/TR/2001/REC-SVG-20010904/DTD/svg10.dtd">
<svg version="1.0" xmlns="http://www.w3.org/2000/svg"
 width="260.000000pt" height="260.000000pt" viewBox="0 0 260.000000 260.000000"
 preserveAspectRatio="xMidYMid meet">
<metadata>
Created by potrace 1.11, written by Peter Selinger 2001-2013
</metadata>
<g transform="translate(0.000000,260.000000) scale(0.100000,-0.100000)"
fill="#000000" stroke="none">
<path d="M0 1300 l0 -1300 1300 0 1300 0 0 1300 0 1300 -1300 0 -1300 0 0
-1300z m1454 841 c108 -53 178 -153 192 -274 l7 -57 -65 0 -65 0 -6 45 c-12
113 -117 201 -229 193 -123 -9 -208 -104 -208 -234 l0 -64 458 -2 457 -3 3
-62 3 -63 -461 0 -460 0 0 -325 0 -325 210 0 210 0 0 135 0 135 -100 0 -100 0
0 66 0 65 283 -3 282 -3 54 -30 c82 -45 139 -134 140 -218 2 -97 -53 -195
-136 -244 -45 -26 -57 -28 -175 -32 l-128 -3 0 -52 c0 -124 -60 -248 -148
-306 -144 -95 -324 -72 -441 56 -59 64 -91 151 -91 245 l0 59 -170 0 -171 0 3
63 3 62 168 3 167 2 0 135 0 135 -97 0 c-77 0 -108 5 -143 21 -165 75 -210
270 -91 402 53 59 107 79 227 85 l101 5 6 78 c18 266 279 425 511 310z"/>
<path d="M743 1605 c-77 -33 -95 -138 -34 -199 31 -30 34 -31 136 -34 l105 -4
0 126 0 126 -87 0 c-53 -1 -101 -6 -120 -15z"/>
<path d="M1620 1105 l0 -135 108 0 c88 0 113 3 139 20 91 55 80 184 -19 236
-18 9 -61 14 -128 14 l-100 0 0 -135z"/>
<path d="M1080 780 c0 -33 7 -77 16 -98 61 -146 253 -177 352 -57 32 40 52
106 52 175 l0 40 -210 0 -210 0 0 -60z"/>
</g>
</svg>
